<?xml version="1.0" encoding="UTF-8"?>
<!-- Generator: visioncortex VTracer 0.6.3 -->
<svg version="1.1" xmlns="http://www.w3.org/2000/svg" width="1280" height="1280">
<path d="M0 0 C1.42 -0.01 1.42 -0.01 2.87 -0.01 C3.9 -0.01 4.94 -0.01 6.01 -0.01 C7.68 -0.01 7.68 -0.01 9.37 -0.02 C13.12 -0.02 16.86 -0.02 20.61 -0.02 C23.31 -0.03 26.01 -0.03 28.71 -0.04 C35.37 -0.05 42.04 -0.05 48.7 -0.06 C56.68 -0.06 64.66 -0.07 72.64 -0.08 C91.93 -0.11 111.21 -0.13 130.5 -0.14 C136.89 -0.14 143.28 -0.15 149.67 -0.15 C183.63 -0.18 217.6 -0.2 251.56 -0.21 C259.43 -0.21 267.3 -0.22 275.17 -0.22 C276.15 -0.22 277.13 -0.22 278.14 -0.22 C309.84 -0.23 341.54 -0.26 373.23 -0.31 C405.82 -0.35 438.41 -0.38 470.99 -0.38 C475.6 -0.38 480.2 -0.38 484.8 -0.38 C485.71 -0.38 486.61 -0.38 487.55 -0.38 C502.12 -0.39 516.7 -0.41 531.28 -0.43 C545.93 -0.46 560.59 -0.47 575.24 -0.46 C583.95 -0.45 592.65 -0.46 601.36 -0.49 C607.17 -0.5 612.99 -0.5 618.81 -0.49 C622.12 -0.48 625.44 -0.48 628.75 -0.5 C653.92 -0.63 653.92 -0.63 664.31 5.13 C664.97 5.46 665.63 5.79 666.31 6.13 C666.31 6.79 666.31 7.45 666.31 8.13 C667.05 8.37 667.8 8.6 668.56 8.85 C676.24 12.43 681.39 22.47 684.31 30.13 C684.31 31.12 684.31 32.11 684.31 33.13 C684.97 33.13 685.63 33.13 686.31 33.13 C689.31 39.75 689.31 39.75 689.31 43.13 C689.97 43.13 690.63 43.13 691.31 43.13 C694.31 49.75 694.31 49.75 694.31 53.13 C694.97 53.13 695.63 53.13 696.31 53.13 C699.31 59.75 699.31 59.75 699.31 63.13 C699.97 63.13 700.63 63.13 701.31 63.13 C704.31 69.75 704.31 69.75 704.31 73.13 C704.97 73.13 705.63 73.13 706.31 73.13 C709.31 79.75 709.31 79.75 709.31 83.13 C709.97 83.13 710.63 83.13 711.31 83.13 C714.31 89.75 714.31 89.75 714.31 93.13 C714.97 93.13 715.63 93.13 716.31 93.13 C719.31 99.75 719.31 99.75 719.31 103.13 C719.97 103.13 720.63 103.13 721.31 103.13 C724.31 109.75 724.31 109.75 724.31 113.13 C724.97 113.13 725.63 113.13 726.31 113.13 C729.31 119.75 729.31 119.75 729.31 123.13 C729.97 123.13 730.63 123.13 731.31 123.13 C734.31 129.75 734.31 129.75 734.31 133.13 C734.97 133.13 735.63 133.13 736.31 133.13 C739.31 139.75 739.31 139.75 739.31 143.13 C739.97 143.13 740.63 143.13 741.31 143.13 C744.31 149.75 744.31 149.75 744.31 153.13 C744.97 153.13 745.63 153.13 746.31 153.13 C749.31 159.75 749.31 159.75 749.31 163.13 C749.97 163.13 750.63 163.13 751.31 163.13 C754.31 169.75 754.31 169.75 754.31 173.13 C754.97 173.13 755.63 173.13 756.31 173.13 C759.31 179.75 759.31 179.75 759.31 183.13 C759.97 183.13 760.63 183.13 761.31 183.13 C764.31 189.75 764.31 189.75 764.31 193.13 C764.97 193.13 765.63 193.13 766.31 193.13 C769.31 199.75 769.31 199.75 769.31 203.13 C769.97 203.13 770.63 203.13 771.31 203.13 C774.31 209.75 774.31 209.75 774.31 213.13 C774.97 213.13 775.63 213.13 776.31 213.13 C779.31 219.75 779.31 219.75 779.31 223.13 C779.97 223.13 780.63 223.13 781.31 223.13 C784.31 229.75 784.31 229.75 784.31 233.13 C784.97 233.13 785.63 233.13 786.31 233.13 C790.06 241.48 791.61 248.29 791.57 257.44 C791.57 258.98 791.57 258.98 791.58 260.56 C791.58 264.02 791.58 267.48 791.57 270.94 C791.58 273.44 791.58 275.94 791.58 278.44 C791.59 283.89 791.59 289.33 791.59 294.78 C791.59 302.88 791.59 310.97 791.6 319.07 C791.61 334.38 791.62 349.68 791.61 364.99 C791.61 376.81 791.61 388.64 791.62 400.46 C791.62 402.16 791.62 403.86 791.62 405.55 C791.62 408.11 791.62 410.67 791.62 413.23 C791.63 437.04 791.64 460.84 791.63 484.64 C791.63 485.54 791.63 486.44 791.63 487.36 C791.63 491.91 791.63 496.46 791.63 501.01 C791.63 501.92 791.63 502.82 791.63 503.75 C791.63 505.58 791.63 507.4 791.63 509.23 C791.62 537.64 791.63 566.05 791.65 594.47 C791.67 626.39 791.68 658.32 791.68 690.24 C791.68 693.65 791.67 697.06 791.67 700.46 C791.67 701.3 791.67 702.14 791.67 703 C791.67 715.65 791.68 728.3 791.69 740.95 C791.7 755.34 791.7 769.73 791.69 784.13 C791.68 792.18 791.69 800.22 791.7 808.27 C791.71 814.29 791.7 820.31 791.69 826.34 C791.69 828.76 791.69 831.19 791.7 833.62 C791.8 868.04 783.32 899.81 763.31 928.13 C762.65 929.12 761.99 930.11 761.31 931.13 C760.65 931.13 759.99 931.13 759.31 931.13 C759 931.75 758.69 932.37 758.37 933 C757.69 934.38 757 935.75 756.31 937.13 C755.65 937.13 754.99 937.13 754.31 937.13 C754.06 937.69 753.82 938.24 753.56 938.82 C750.63 944.24 746.3 948.55 741.31 952.13 C740.65 952.13 739.99 952.13 739.31 952.13 C739.31 952.79 739.31 953.45 739.31 954.13 C737.54 955.73 735.77 957.19 733.87 958.63 C733.3 959.07 732.72 959.51 732.13 959.96 C717.88 970.57 702.4 978.32 685.31 983.13 C683.48 983.66 683.48 983.66 681.61 984.2 C669.56 987.56 657.86 989.44 645.33 989.38 C644.19 989.39 643.05 989.39 641.88 989.39 C638.09 989.4 634.3 989.4 630.5 989.39 C627.75 989.39 624.99 989.4 622.24 989.4 C616.26 989.41 610.28 989.41 604.3 989.41 C595.41 989.4 586.52 989.41 577.63 989.42 C560.83 989.43 544.02 989.43 527.22 989.43 C514.24 989.43 501.26 989.43 488.28 989.44 C486.42 989.44 484.55 989.44 482.69 989.44 C479.87 989.44 477.06 989.44 474.25 989.44 C448.11 989.45 421.97 989.45 395.84 989.45 C394.85 989.45 393.87 989.45 392.85 989.45 C387.86 989.45 382.87 989.45 377.88 989.45 C376.88 989.45 375.89 989.45 374.87 989.45 C372.87 989.45 370.86 989.45 368.86 989.45 C337.66 989.44 306.47 989.45 275.28 989.47 C240.22 989.49 205.16 989.5 170.1 989.49 C166.36 989.49 162.62 989.49 158.88 989.49 C157.96 989.49 157.03 989.49 156.09 989.49 C142.2 989.49 128.31 989.5 114.42 989.51 C98.62 989.52 82.83 989.52 67.03 989.51 C58.19 989.5 49.36 989.5 40.52 989.52 C34.61 989.53 28.7 989.52 22.79 989.51 C19.43 989.51 16.07 989.51 12.71 989.52 C-1.12 989.55 -14.17 989.2 -27.69 986.13 C-29.33 985.81 -30.98 985.5 -32.63 985.19 C-36.57 984.28 -40.22 982.82 -43.94 981.23 C-46.23 980.31 -48.49 979.56 -50.85 978.83 C-56.23 977.06 -61.13 974.54 -66.13 971.88 C-67.51 971.15 -67.51 971.15 -68.91 970.41 C-82.19 963.29 -82.19 963.29 -86.69 959.13 C-86.69 958.47 -86.69 957.81 -86.69 957.13 C-87.31 956.82 -87.93 956.51 -88.56 956.19 C-89.94 955.5 -91.31 954.82 -92.69 954.13 C-92.69 953.47 -92.69 952.81 -92.69 952.13 C-93.25 951.88 -93.8 951.63 -94.38 951.38 C-99.8 948.45 -104.11 944.12 -107.69 939.13 C-107.69 938.47 -107.69 937.81 -107.69 937.13 C-108.35 937.13 -109.01 937.13 -109.69 937.13 C-111.33 935.27 -112.83 933.42 -114.31 931.44 C-114.76 930.85 -115.2 930.27 -115.66 929.66 C-127.66 913.57 -136.34 896 -140.2 876.23 C-140.68 873.99 -140.68 873.99 -141.65 871.33 C-145.9 858.21 -144.97 844.16 -144.95 830.55 C-144.95 828.03 -144.96 825.52 -144.96 823.01 C-144.97 817.56 -144.97 812.11 -144.97 806.66 C-144.96 798.55 -144.97 790.45 -144.98 782.34 C-144.99 767.03 -144.99 751.71 -144.99 736.4 C-144.99 724.57 -144.99 712.75 -144.99 700.92 C-145 699.22 -145 697.52 -145 695.82 C-145 693.26 -145 690.7 -145 688.13 C-145.01 664.33 -145.01 640.52 -145.01 616.71 C-145.01 615.81 -145.01 614.91 -145.01 613.99 C-145.01 609.44 -145.01 604.9 -145 600.35 C-145 599.45 -145 598.55 -145 597.62 C-145 595.79 -145 593.96 -145 592.14 C-145 563.71 -145.01 535.29 -145.02 506.86 C-145.05 474.91 -145.06 442.97 -145.05 411.02 C-145.05 407.61 -145.05 404.21 -145.05 400.8 C-145.05 399.97 -145.05 399.13 -145.05 398.26 C-145.05 385.6 -145.06 372.94 -145.07 360.28 C-145.08 345.89 -145.08 331.5 -145.07 317.11 C-145.06 309.05 -145.06 301 -145.08 292.94 C-145.09 286.93 -145.08 280.92 -145.07 274.91 C-145.06 272.48 -145.07 270.04 -145.07 267.61 C-145.08 264.3 -145.08 261 -145.06 257.7 C-145.07 256.75 -145.08 255.8 -145.09 254.82 C-145.04 248.74 -143.94 243.77 -141.69 238.13 C-141.3 237.12 -140.9 236.11 -140.5 235.07 C-140.1 234.11 -140.1 234.11 -139.69 233.13 C-139.03 233.13 -138.37 233.13 -137.69 233.13 C-137.56 232.41 -137.44 231.69 -137.31 230.94 C-136.7 228.17 -135.8 225.73 -134.69 223.13 C-134.03 223.13 -133.37 223.13 -132.69 223.13 C-132.56 222.41 -132.44 221.69 -132.31 220.94 C-131.7 218.17 -130.8 215.73 -129.69 213.13 C-129.03 213.13 -128.37 213.13 -127.69 213.13 C-127.56 212.41 -127.44 211.69 -127.31 210.94 C-126.7 208.17 -125.8 205.73 -124.69 203.13 C-124.03 203.13 -123.37 203.13 -122.69 203.13 C-122.56 202.41 -122.44 201.69 -122.31 200.94 C-121.7 198.17 -120.8 195.73 -119.69 193.13 C-119.03 193.13 -118.37 193.13 -117.69 193.13 C-117.56 192.41 -117.44 191.69 -117.31 190.94 C-116.7 188.17 -115.8 185.73 -114.69 183.13 C-114.03 183.13 -113.37 183.13 -112.69 183.13 C-112.56 182.41 -112.44 181.69 -112.31 180.94 C-111.7 178.17 -110.8 175.73 -109.69 173.13 C-109.03 173.13 -108.37 173.13 -107.69 173.13 C-107.56 172.41 -107.44 171.69 -107.31 170.94 C-106.7 168.17 -105.8 165.73 -104.69 163.13 C-104.03 163.13 -103.37 163.13 -102.69 163.13 C-102.56 162.41 -102.44 161.69 -102.31 160.94 C-101.7 158.17 -100.8 155.73 -99.69 153.13 C-99.03 153.13 -98.37 153.13 -97.69 153.13 C-97.56 152.41 -97.44 151.69 -97.31 150.94 C-96.7 148.17 -95.8 145.73 -94.69 143.13 C-94.03 143.13 -93.37 143.13 -92.69 143.13 C-92.56 142.41 -92.44 141.69 -92.31 140.94 C-91.7 138.17 -90.8 135.73 -89.69 133.13 C-89.03 133.13 -88.37 133.13 -87.69 133.13 C-87.56 132.41 -87.44 131.69 -87.31 130.94 C-86.7 128.17 -85.8 125.73 -84.69 123.13 C-84.03 123.13 -83.37 123.13 -82.69 123.13 C-82.5 122.05 -82.5 122.05 -82.31 120.94 C-81.7 118.17 -80.8 115.73 -79.69 113.13 C-79.03 113.13 -78.37 113.13 -77.69 113.13 C-77.5 112.05 -77.5 112.05 -77.31 110.94 C-76.7 108.17 -75.8 105.73 -74.69 103.13 C-74.03 103.13 -73.37 103.13 -72.69 103.13 C-72.5 102.05 -72.5 102.05 -72.31 100.94 C-71.7 98.17 -70.8 95.73 -69.69 93.13 C-69.03 93.13 -68.37 93.13 -67.69 93.13 C-67.5 92.05 -67.5 92.05 -67.31 90.94 C-66.7 88.17 -65.8 85.73 -64.69 83.13 C-64.03 83.13 -63.37 83.13 -62.69 83.13 C-62.5 82.05 -62.5 82.05 -62.31 80.94 C-61.7 78.17 -60.8 75.73 -59.69 73.13 C-59.03 73.13 -58.37 73.13 -57.69 73.13 C-57.5 72.05 -57.5 72.05 -57.31 70.94 C-56.7 68.17 -55.8 65.73 -54.69 63.13 C-54.03 63.13 -53.37 63.13 -52.69 63.13 C-52.56 62.41 -52.44 61.69 -52.31 60.94 C-51.7 58.17 -50.8 55.73 -49.69 53.13 C-49.03 53.13 -48.37 53.13 -47.69 53.13 C-47.56 52.41 -47.44 51.69 -47.31 50.94 C-46.7 48.17 -45.8 45.73 -44.69 43.13 C-44.03 43.13 -43.37 43.13 -42.69 43.13 C-42.56 42.41 -42.44 41.69 -42.31 40.94 C-41.7 38.17 -40.8 35.73 -39.69 33.13 C-39.03 33.13 -38.37 33.13 -37.69 33.13 C-37.56 32.41 -37.44 31.69 -37.31 30.94 C-36.7 28.17 -35.8 25.73 -34.69 23.13 C-34.03 23.13 -33.37 23.13 -32.69 23.13 C-32.36 21.48 -32.03 19.83 -31.69 18.13 C-31.03 18.13 -30.37 18.13 -29.69 18.13 C-29.48 17.41 -29.28 16.69 -29.06 15.94 C-27.21 12.16 -25.09 10.61 -21.69 8.13 C-21.03 8.13 -20.37 8.13 -19.69 8.13 C-19.69 7.47 -19.69 6.81 -19.69 6.13 C-17.94 5.31 -16.19 4.5 -14.44 3.69 C-13.46 3.24 -12.49 2.79 -11.49 2.32 C-7.54 0.64 -4.28 0.01 0 0 Z M26.31 85.13 C26.31 86.45 26.31 87.77 26.31 89.13 C25.65 89.13 24.99 89.13 24.31 89.13 C22.28 92.86 21.31 94.8 21.31 99.13 C20.65 99.13 19.99 99.13 19.31 99.13 C17.28 102.86 16.31 104.8 16.31 109.13 C15.65 109.13 14.99 109.13 14.31 109.13 C12.28 112.86 11.31 114.8 11.31 119.13 C10.65 119.13 9.99 119.13 9.31 119.13 C7.28 122.86 6.31 124.8 6.31 129.13 C5.65 129.13 4.99 129.13 4.31 129.13 C2.28 132.86 1.31 134.8 1.31 139.13 C0.65 139.13 -0.01 139.13 -0.69 139.13 C-2.72 142.86 -3.69 144.8 -3.69 149.13 C-4.35 149.13 -5.01 149.13 -5.69 149.13 C-7.72 152.86 -8.69 154.8 -8.69 159.13 C-9.35 159.13 -10.01 159.13 -10.69 159.13 C-12.72 162.86 -13.69 164.8 -13.69 169.13 C-14.35 169.13 -15.01 169.13 -15.69 169.13 C-17.72 172.86 -18.69 174.8 -18.69 179.13 C-19.35 179.13 -20.01 179.13 -20.69 179.13 C-22.72 182.86 -23.69 184.8 -23.69 189.13 C-24.35 189.13 -25.01 189.13 -25.69 189.13 C-27.72 192.86 -28.69 194.8 -28.69 199.13 C-29.35 199.13 -30.01 199.13 -30.69 199.13 C-32.72 202.86 -33.69 204.8 -33.69 209.13 C-34.35 209.13 -35.01 209.13 -35.69 209.13 C-35.69 210.45 -35.69 211.77 -35.69 213.13 C201.25 213.13 438.19 213.13 682.31 213.13 C682.31 211.81 682.31 210.49 682.31 209.13 C681.65 209.13 680.99 209.13 680.31 209.13 C680.13 208.05 680.13 208.05 679.94 206.94 C679.32 204.17 678.43 201.73 677.31 199.13 C676.65 199.13 675.99 199.13 675.31 199.13 C675.13 198.05 675.13 198.05 674.94 196.94 C674.32 194.17 673.43 191.73 672.31 189.13 C671.65 189.13 670.99 189.13 670.31 189.13 C670.13 188.05 670.13 188.05 669.94 186.94 C669.32 184.17 668.43 181.73 667.31 179.13 C666.65 179.13 665.99 179.13 665.31 179.13 C665.13 178.05 665.13 178.05 664.94 176.94 C664.32 174.17 663.43 171.73 662.31 169.13 C661.65 169.13 660.99 169.13 660.31 169.13 C660.13 168.05 660.13 168.05 659.94 166.94 C659.32 164.17 658.43 161.73 657.31 159.13 C656.65 159.13 655.99 159.13 655.31 159.13 C655.13 158.05 655.13 158.05 654.94 156.94 C654.32 154.17 653.43 151.73 652.31 149.13 C651.65 149.13 650.99 149.13 650.31 149.13 C650.13 148.05 650.13 148.05 649.94 146.94 C649.32 144.17 648.43 141.73 647.31 139.13 C646.65 139.13 645.99 139.13 645.31 139.13 C645.13 138.05 645.13 138.05 644.94 136.94 C644.32 134.17 643.43 131.73 642.31 129.13 C641.65 129.13 640.99 129.13 640.31 129.13 C640.13 128.05 640.13 128.05 639.94 126.94 C639.32 124.17 638.43 121.73 637.31 119.13 C636.65 119.13 635.99 119.13 635.31 119.13 C635.13 118.05 635.13 118.05 634.94 116.94 C634.32 114.17 633.43 111.73 632.31 109.13 C631.65 109.13 630.99 109.13 630.31 109.13 C630.13 108.05 630.13 108.05 629.94 106.94 C629.32 104.17 628.43 101.73 627.31 99.13 C626.65 99.13 625.99 99.13 625.31 99.13 C625.19 98.41 625.06 97.69 624.94 96.94 C624.32 94.17 623.43 91.73 622.31 89.13 C621.65 89.13 620.99 89.13 620.31 89.13 C620.17 88.35 620.02 87.56 619.87 86.75 C619.43 84.17 619.43 84.17 618.31 82.13 C562.09 82.08 505.87 82.03 449.65 82 C448.82 82 447.99 82 447.13 82 C429.06 81.99 410.99 81.98 392.93 81.98 C384.07 81.97 375.21 81.97 366.35 81.97 C365.46 81.96 364.58 81.96 363.67 81.96 C335.07 81.95 306.47 81.93 277.87 81.9 C248.49 81.87 219.11 81.85 189.73 81.85 C185.58 81.85 181.43 81.85 177.29 81.85 C176.07 81.85 176.07 81.85 174.82 81.84 C161.66 81.84 148.5 81.83 135.34 81.81 C122.13 81.79 108.91 81.79 95.7 81.79 C87.84 81.79 79.98 81.79 72.12 81.77 C66.26 81.76 60.41 81.76 54.55 81.77 C52.17 81.77 49.79 81.76 47.41 81.76 C44.2 81.74 40.99 81.75 37.77 81.76 C36.36 81.75 36.36 81.75 34.92 81.74 C34.07 81.74 33.22 81.75 32.34 81.76 C31.61 81.76 30.87 81.76 30.11 81.76 C27.89 82 27.89 82 26.31 85.13 Z M-61.69 296.13 C-61.71 387.56 -61.73 478.99 -61.75 573.19 C-61.76 602.1 -61.77 631.01 -61.78 660.8 C-61.78 686.63 -61.78 686.63 -61.78 712.46 C-61.78 724.76 -61.79 737.06 -61.79 749.36 C-61.8 761.89 -61.8 774.43 -61.8 786.97 C-61.8 793.77 -61.8 800.58 -61.81 807.39 C-61.81 813.53 -61.81 819.68 -61.81 825.83 C-61.81 828.06 -61.81 830.29 -61.81 832.52 C-61.82 835.55 -61.81 838.57 -61.81 841.6 C-61.81 842.47 -61.82 843.35 -61.82 844.24 C-61.77 861.45 -54.78 875.06 -43.38 887.69 C-23.72 905.52 -5.58 906.58 20 906.5 C22.73 906.5 25.46 906.5 28.19 906.51 C34.11 906.52 40.03 906.51 45.95 906.5 C54.76 906.49 63.56 906.49 72.37 906.49 C87.18 906.5 101.99 906.49 116.81 906.48 C131.47 906.46 146.14 906.45 160.81 906.45 C161.72 906.45 162.63 906.45 163.57 906.45 C167.28 906.45 170.99 906.45 174.69 906.45 C208.45 906.45 242.21 906.44 275.97 906.41 C307.83 906.39 339.7 906.37 371.57 906.37 C372.55 906.37 373.53 906.37 374.55 906.37 C378.51 906.37 382.47 906.37 386.43 906.37 C388.4 906.37 390.37 906.37 392.35 906.37 C394.32 906.37 396.28 906.37 398.25 906.37 C429.59 906.36 460.93 906.35 492.27 906.34 C501.44 906.34 510.62 906.33 519.79 906.33 C539.08 906.33 558.37 906.32 577.66 906.3 C585.64 906.3 593.62 906.29 601.6 906.29 C608.21 906.29 614.82 906.29 621.44 906.28 C624.77 906.27 628.1 906.27 631.43 906.27 C635.01 906.27 638.6 906.27 642.18 906.26 C643.22 906.26 644.26 906.26 645.32 906.27 C663.02 906.21 676.77 899.64 689.87 887.82 C706.59 869.39 708.77 852.43 708.67 828.38 C708.67 826.08 708.68 823.78 708.68 821.49 C708.69 815.2 708.68 808.9 708.66 802.61 C708.65 796.42 708.65 790.24 708.65 784.05 C708.66 771.48 708.65 758.91 708.63 746.33 C708.6 729.34 708.6 712.34 708.6 695.34 C708.58 654.48 708.54 613.62 708.5 572.75 C708.44 481.47 708.38 390.18 708.31 296.13 C454.21 296.13 200.11 296.13 -61.69 296.13 Z " fill="#000000" transform="translate(316.68812650442123,118.87004816532135)"/>
<path d="M0 0 C9.5 8.81 13.99 19.63 14.5 32.56 C14.55 34.09 14.6 35.63 14.64 37.16 C14.77 41.48 15.18 45.72 15.75 50 C15.9 51.17 16.06 52.34 16.21 53.55 C16.78 56.51 17.66 58.92 18.81 61.69 C19.3 63.62 19.75 65.56 20.19 67.5 C21.47 72.73 23.24 76.99 25.81 81.69 C26.86 83.81 27.9 85.94 28.94 88.06 C30.93 92.19 30.93 92.19 33.81 95.69 C33.81 96.68 33.81 97.67 33.81 98.69 C34.47 98.69 35.13 98.69 35.81 98.69 C37.15 100.37 38.41 102.11 39.62 103.88 C42.93 108.56 42.93 108.56 46.81 112.75 C47.8 113.71 47.8 113.71 48.81 114.69 C48.81 115.35 48.81 116.01 48.81 116.69 C49.39 116.95 49.98 117.21 50.57 117.48 C52.94 118.76 54.65 120.19 56.62 122 C62.25 127.03 68.14 131.14 74.81 134.69 C75.68 135.15 76.54 135.62 77.43 136.09 C95.59 145.54 112.57 148.88 132.81 148.81 C133.92 148.82 135.03 148.82 136.18 148.82 C146.92 148.81 156.54 147.85 166.81 144.69 C167.84 144.38 168.87 144.06 169.93 143.74 C175.7 141.91 180.66 139.84 185.81 136.69 C188.78 135.38 191.65 134.39 194.81 133.69 C194.81 133.03 194.81 132.37 194.81 131.69 C195.86 131.11 196.92 130.53 198 129.94 C200.43 128.56 202.42 127.2 204.62 125.44 C206.81 123.69 206.81 123.69 208.81 123.69 C208.81 123.03 208.81 122.37 208.81 121.69 C214.29 116.69 214.29 116.69 216.81 116.69 C217.06 116.12 217.31 115.55 217.57 114.96 C219 112.34 220.72 110.43 222.75 108.25 C224.97 105.86 226.79 103.73 228.44 100.9 C229.12 99.81 229.12 99.81 229.81 98.69 C230.47 98.69 231.13 98.69 231.81 98.69 C231.92 98.12 232.03 97.56 232.14 96.98 C232.92 94.32 234.13 92.39 235.62 90.06 C238.67 85.12 240.82 80.13 242.81 74.69 C243.08 74.01 243.34 73.33 243.62 72.63 C244.38 70.66 245.11 68.68 245.81 66.69 C246.07 65.96 246.33 65.24 246.59 64.5 C249.82 54.71 250.75 44.6 251.1 34.36 C251.38 26.45 251.78 19.71 255.81 12.69 C256.25 11.91 256.68 11.14 257.13 10.34 C263.06 0.66 271.49 -5.71 282.32 -9.1 C292.88 -11.6 304.26 -9.63 313.8 -4.57 C319.98 -0.71 325.24 4.32 328.81 10.69 C329.28 11.49 329.75 12.28 330.23 13.11 C336.67 26.45 335.25 44.05 332.27 58.21 C331.79 60.84 331.58 63.4 331.44 66.06 C331.01 71.48 329.54 76.3 327.84 81.44 C326.88 84.47 326.14 87.47 325.44 90.56 C322.72 101.74 317.68 112.32 312.81 122.69 C312.15 122.69 311.49 122.69 310.81 122.69 C310.65 123.77 310.65 123.77 310.48 124.88 C309.77 127.86 308.73 129.93 307.16 132.55 C306.63 133.44 306.1 134.32 305.56 135.24 C304.72 136.6 304.72 136.6 303.88 138 C303.32 138.93 302.77 139.86 302.21 140.82 C301.67 141.7 301.14 142.58 300.6 143.49 C300.11 144.29 299.63 145.1 299.13 145.93 C298.69 146.51 298.26 147.09 297.81 147.69 C297.15 147.69 296.49 147.69 295.81 147.69 C295.44 148.76 295.44 148.76 295.06 149.86 C293.67 153 291.97 155.33 289.81 158 C289.11 158.88 288.41 159.77 287.69 160.68 C287.07 161.34 286.45 162 285.81 162.69 C285.15 162.69 284.49 162.69 283.81 162.69 C283.54 163.26 283.28 163.84 283 164.44 C281.78 166.74 280.51 168.71 278.81 170.69 C278.15 170.69 277.49 170.69 276.81 170.69 C276.58 171.26 276.34 171.83 276.09 172.42 C274.54 175.18 272.69 176.86 270.31 178.94 C269.52 179.64 268.72 180.35 267.91 181.08 C265.81 182.69 265.81 182.69 263.81 182.69 C263.48 183.68 263.15 184.67 262.81 185.69 C261.34 187.05 261.34 187.05 259.46 188.43 C258.43 189.19 258.43 189.19 257.38 189.97 C256.66 190.5 255.93 191.02 255.19 191.56 C254.49 192.08 253.79 192.6 253.07 193.13 C250.99 194.66 248.9 196.17 246.81 197.69 C246.19 198.15 245.58 198.6 244.94 199.08 C241.35 201.71 237.79 203.84 233.75 205.75 C230.54 207.31 227.64 208.8 224.69 210.81 C221.39 212.96 218.07 214.28 214.41 215.68 C211.9 216.65 209.45 217.71 207 218.81 C201.68 221.2 196.44 223.15 190.81 224.69 C189.97 224.93 189.13 225.16 188.27 225.41 C186.9 225.79 186.9 225.79 185.5 226.19 C184.66 226.42 183.82 226.66 182.95 226.91 C178.6 227.99 174.21 228.84 169.81 229.69 C169.07 229.83 168.32 229.98 167.56 230.13 C133.69 236.49 95.16 234.06 63.38 220.19 C60.77 219.09 58.31 218.2 55.62 217.38 C37.53 211.38 20.48 199.62 5.81 187.69 C5.04 187.14 4.27 186.6 3.47 186.04 C2.65 185.37 2.65 185.37 1.81 184.69 C1.81 184.03 1.81 183.37 1.81 182.69 C1.23 182.42 0.65 182.16 0.05 181.88 C-6.96 178.14 -15.65 170.31 -18.19 162.69 C-18.85 162.69 -19.51 162.69 -20.19 162.69 C-21.98 160.6 -23.66 158.51 -25.31 156.31 C-25.78 155.71 -26.25 155.11 -26.73 154.48 C-30.19 149.95 -30.19 149.95 -30.19 147.69 C-30.85 147.69 -31.51 147.69 -32.19 147.69 C-33.42 146.03 -33.42 146.03 -34.8 143.7 C-35.55 142.43 -35.55 142.43 -36.33 141.13 C-36.86 140.22 -37.39 139.31 -37.94 138.38 C-38.48 137.46 -39.02 136.54 -39.58 135.59 C-41.12 132.96 -42.66 130.33 -44.19 127.69 C-44.84 126.57 -45.5 125.45 -46.17 124.3 C-49.11 119.11 -51.33 113.94 -53.25 108.3 C-54.12 105.86 -55.14 103.58 -56.25 101.25 C-58.3 96.8 -59.4 92.25 -60.48 87.48 C-61.11 84.72 -61.11 84.72 -62.15 82.33 C-67.85 67.83 -68.47 50.8 -68.62 35.44 C-68.65 34.32 -68.67 33.2 -68.69 32.05 C-68.66 20.26 -64.43 10.38 -56.38 1.75 C-40.43 -13.13 -16.79 -14.05 0 0 Z " fill="#000000" transform="translate(507.1875,555.3125)"/>
</svg>
