<?xml version="1.0" encoding="UTF-8"?>
<!-- Generator: visioncortex VTracer 0.6.3 -->
<svg version="1.1" xmlns="http://www.w3.org/2000/svg" width="1280" height="1280">
<path d="M0 0 C9.66 5.43 14.64 13.83 17.77 24.29 C19.68 32.67 16.94 39.8 13.52 47.42 C12.86 47.42 12.2 47.42 11.52 47.42 C11.36 48.27 11.36 48.27 11.2 49.15 C10.42 51.76 9.27 53.51 7.71 55.73 C5.52 58.86 3.56 62.06 1.68 65.39 C-0.66 69.48 -3.11 73.51 -5.54 77.54 C-6.07 78.42 -6.6 79.3 -7.14 80.21 C-8.15 81.89 -9.16 83.57 -10.18 85.24 C-11.22 86.99 -12.23 88.76 -13.22 90.54 C-13.64 91.16 -14.05 91.78 -14.48 92.42 C-15.14 92.42 -15.8 92.42 -16.48 92.42 C-16.6 93 -16.72 93.57 -16.85 94.17 C-17.48 96.44 -18.37 98.34 -19.48 100.42 C-20.14 100.42 -20.8 100.42 -21.48 100.42 C-21.6 101 -21.71 101.57 -21.84 102.17 C-22.51 104.55 -23.43 106.3 -24.71 108.41 C-25.17 109.19 -25.64 109.96 -26.12 110.76 C-26.63 111.6 -27.14 112.43 -27.66 113.29 C-28.46 114.62 -28.46 114.62 -29.28 115.97 C-34.34 124.28 -39.57 132.48 -44.81 140.67 C-48.74 146.81 -52.61 152.99 -56.48 159.17 C-57.09 160.14 -57.7 161.12 -58.33 162.12 C-61.16 166.66 -63.97 171.22 -66.71 175.81 C-69.1 179.81 -71.63 183.68 -74.28 187.51 C-75.64 189.51 -75.64 189.51 -76.48 192.42 C-77.14 192.42 -77.8 192.42 -78.48 192.42 C-78.64 193.27 -78.64 193.27 -78.8 194.15 C-79.58 196.76 -80.73 198.51 -82.29 200.73 C-84.48 203.86 -86.44 207.06 -88.32 210.39 C-90.66 214.48 -93.11 218.51 -95.54 222.54 C-96.07 223.42 -96.6 224.3 -97.14 225.21 C-98.15 226.89 -99.16 228.57 -100.18 230.24 C-101.22 231.99 -102.23 233.76 -103.22 235.54 C-103.84 236.47 -103.84 236.47 -104.48 237.42 C-105.14 237.42 -105.8 237.42 -106.48 237.42 C-106.66 238.28 -106.66 238.28 -106.85 239.17 C-107.48 241.44 -108.37 243.34 -109.48 245.42 C-110.14 245.42 -110.8 245.42 -111.48 245.42 C-111.59 245.98 -111.69 246.54 -111.81 247.12 C-112.59 249.79 -113.76 251.8 -115.21 254.17 C-115.78 255.1 -116.35 256.03 -116.93 256.98 C-117.54 257.97 -118.16 258.96 -118.79 259.98 C-119.74 261.53 -119.74 261.53 -120.71 263.1 C-125.52 270.92 -130.41 278.69 -135.33 286.45 C-139.64 293.23 -143.88 300.06 -148.14 306.88 C-148.73 307.83 -149.32 308.78 -149.93 309.76 C-150.51 310.69 -151.09 311.62 -151.69 312.58 C-154.13 316.45 -156.61 320.29 -159.1 324.12 C-160.61 326.45 -160.61 326.45 -161.48 329.42 C-162.14 329.42 -162.8 329.42 -163.48 329.42 C-163.6 330 -163.72 330.57 -163.85 331.17 C-164.48 333.44 -165.37 335.34 -166.48 337.42 C-167.14 337.42 -167.8 337.42 -168.48 337.42 C-168.6 338 -168.72 338.57 -168.85 339.17 C-169.48 341.44 -170.37 343.34 -171.48 345.42 C-172.14 345.42 -172.8 345.42 -173.48 345.42 C-173.59 345.99 -173.7 346.57 -173.81 347.16 C-174.56 349.7 -175.63 351.33 -177.16 353.48 C-179.55 356.94 -181.63 360.45 -183.6 364.17 C-185.61 367.94 -187.78 371.1 -190.48 374.42 C-191.91 377.04 -193.21 379.71 -194.48 382.42 C-195.14 382.42 -195.8 382.42 -196.48 382.42 C-196.61 383.22 -196.61 383.22 -196.75 384.05 C-197.71 387.19 -199.3 389.6 -201.05 392.38 C-201.79 393.55 -202.52 394.71 -203.25 395.88 C-203.62 396.47 -203.99 397.06 -204.38 397.67 C-206.05 400.33 -207.69 403.02 -209.34 405.71 C-215.36 415.52 -221.38 425.32 -227.54 435.04 C-228 435.78 -228.47 436.51 -228.95 437.27 C-229.42 438.01 -229.89 438.76 -230.38 439.53 C-234.12 445.42 -237.83 451.32 -241.54 457.23 C-242.51 458.76 -242.51 458.76 -243.49 460.32 C-246.38 464.93 -249.19 469.48 -251.48 474.42 C-252.14 474.42 -252.8 474.42 -253.48 474.42 C-253.6 475 -253.72 475.57 -253.85 476.17 C-254.48 478.44 -255.37 480.34 -256.48 482.42 C-257.14 482.42 -257.8 482.42 -258.48 482.42 C-258.6 483 -258.72 483.57 -258.85 484.17 C-259.48 486.44 -260.37 488.34 -261.48 490.42 C-262.14 490.42 -262.8 490.42 -263.48 490.42 C-263.58 490.99 -263.69 491.56 -263.8 492.15 C-264.58 494.76 -265.73 496.51 -267.29 498.73 C-269.13 501.41 -270.9 504.07 -272.48 506.92 C-274.46 510.49 -276.75 513.84 -279.04 517.23 C-280.62 519.64 -282.03 522.1 -283.42 524.62 C-284.64 526.7 -285.99 528.68 -287.35 530.67 C-289.47 533.8 -291.34 536.95 -293.1 540.29 C-297.39 548.35 -302.43 555.95 -307.36 563.62 C-308.52 565.42 -308.52 565.42 -309.48 567.42 C-310.14 567.42 -310.8 567.42 -311.48 567.42 C-311.6 568 -311.71 568.57 -311.84 569.17 C-312.51 571.55 -313.43 573.3 -314.71 575.41 C-315.17 576.19 -315.64 576.96 -316.12 577.76 C-316.63 578.6 -317.14 579.43 -317.66 580.29 C-318.19 581.17 -318.72 582.04 -319.26 582.94 C-324.44 591.45 -329.78 599.85 -335.15 608.23 C-335.69 609.08 -336.23 609.92 -336.78 610.78 C-337.99 612.66 -339.2 614.54 -340.42 616.41 C-341.05 617.39 -341.68 618.37 -342.33 619.38 C-342.91 620.27 -343.49 621.17 -344.08 622.09 C-345.6 624.44 -345.6 624.44 -346.48 627.42 C-347.14 627.42 -347.8 627.42 -348.48 627.42 C-348.58 627.99 -348.69 628.56 -348.8 629.15 C-349.58 631.76 -350.73 633.51 -352.29 635.73 C-354.13 638.41 -355.9 641.07 -357.48 643.92 C-359.46 647.49 -361.75 650.84 -364.04 654.23 C-365.27 656.1 -366.39 657.97 -367.48 659.92 C-369.46 663.49 -371.75 666.84 -374.04 670.23 C-375.62 672.64 -377.03 675.1 -378.42 677.62 C-379.64 679.7 -380.99 681.68 -382.35 683.67 C-384.55 686.92 -386.5 690.21 -388.35 693.67 C-390.7 698.05 -393.16 702.35 -395.73 706.61 C-396.39 707.71 -397.06 708.82 -397.74 709.96 C-398.31 710.77 -398.89 711.58 -399.48 712.42 C-400.14 712.42 -400.8 712.42 -401.48 712.42 C-401.6 713 -401.72 713.57 -401.85 714.17 C-402.48 716.44 -403.37 718.34 -404.48 720.42 C-405.14 720.42 -405.8 720.42 -406.48 720.42 C-406.6 721 -406.71 721.57 -406.84 722.17 C-407.51 724.55 -408.43 726.3 -409.71 728.41 C-410.17 729.19 -410.64 729.96 -411.12 730.76 C-411.63 731.6 -412.14 732.43 -412.66 733.29 C-413.2 734.17 -413.73 735.05 -414.28 735.96 C-418.81 743.41 -423.48 750.77 -428.18 758.11 C-435.21 769.09 -442.05 780.18 -448.86 791.3 C-452.24 796.83 -455.66 802.29 -459.35 807.61 C-460.64 809.53 -460.64 809.53 -461.48 812.42 C-462.14 812.42 -462.8 812.42 -463.48 812.42 C-463.58 812.99 -463.69 813.56 -463.8 814.15 C-464.58 816.76 -465.73 818.51 -467.29 820.73 C-469.48 823.86 -471.44 827.06 -473.32 830.39 C-475.66 834.48 -478.11 838.51 -480.54 842.54 C-481.07 843.42 -481.6 844.3 -482.14 845.21 C-483.15 846.89 -484.16 848.57 -485.18 850.24 C-486.22 851.99 -487.23 853.76 -488.22 855.54 C-488.64 856.16 -489.05 856.78 -489.48 857.42 C-490.14 857.42 -490.8 857.42 -491.48 857.42 C-491.6 858 -491.72 858.57 -491.85 859.17 C-492.48 861.44 -493.37 863.34 -494.48 865.42 C-495.14 865.42 -495.8 865.42 -496.48 865.42 C-496.6 866 -496.71 866.57 -496.84 867.17 C-497.51 869.55 -498.43 871.3 -499.71 873.41 C-500.17 874.19 -500.64 874.96 -501.12 875.76 C-501.63 876.6 -502.14 877.43 -502.66 878.29 C-503.2 879.18 -503.73 880.06 -504.28 880.97 C-509.34 889.28 -514.57 897.48 -519.81 905.67 C-523.74 911.81 -527.61 917.99 -531.48 924.17 C-532.09 925.14 -532.7 926.12 -533.33 927.12 C-540.3 938.04 -540.3 938.04 -546.48 949.42 C-547.14 949.42 -547.8 949.42 -548.48 949.42 C-548.6 950 -548.72 950.57 -548.85 951.17 C-549.48 953.44 -550.37 955.34 -551.48 957.42 C-552.14 957.42 -552.8 957.42 -553.48 957.42 C-553.6 958 -553.72 958.57 -553.85 959.17 C-554.48 961.44 -555.37 963.34 -556.48 965.42 C-557.14 965.42 -557.8 965.42 -558.48 965.42 C-558.59 965.99 -558.7 966.57 -558.81 967.16 C-559.56 969.7 -560.63 971.33 -562.16 973.48 C-564.44 976.79 -566.46 980.12 -568.35 983.67 C-570.7 988.05 -573.16 992.35 -575.73 996.61 C-576.39 997.71 -577.06 998.82 -577.74 999.96 C-578.31 1000.77 -578.89 1001.58 -579.48 1002.42 C-580.14 1002.42 -580.8 1002.42 -581.48 1002.42 C-581.57 1002.97 -581.67 1003.51 -581.77 1004.08 C-582.66 1007.03 -584.08 1009.24 -585.73 1011.86 C-586.45 1013.01 -587.18 1014.17 -587.91 1015.32 C-588.31 1015.96 -588.72 1016.61 -589.14 1017.27 C-590.63 1019.66 -592.09 1022.07 -593.55 1024.48 C-605.1 1043.55 -618.56 1064.07 -638.48 1075.42 C-639.47 1075.42 -640.46 1075.42 -641.48 1075.42 C-641.48 1076.08 -641.48 1076.74 -641.48 1077.42 C-652.21 1082.77 -662.81 1087.48 -674.48 1090.42 C-675.2 1090.6 -675.92 1090.79 -676.67 1090.98 C-700.67 1096.47 -725.79 1092.41 -747.48 1081.42 C-749.14 1080.73 -750.8 1080.06 -752.48 1079.42 C-752.48 1078.76 -752.48 1078.1 -752.48 1077.42 C-753.02 1077.32 -753.56 1077.23 -754.12 1077.13 C-757.17 1076.21 -759.53 1074.69 -762.23 1072.98 C-763.21 1072.36 -764.2 1071.75 -765.21 1071.11 C-765.96 1070.55 -766.71 1069.99 -767.48 1069.42 C-767.48 1068.76 -767.48 1068.1 -767.48 1067.42 C-768.03 1067.19 -768.58 1066.96 -769.15 1066.73 C-777.38 1062.09 -785.22 1052.11 -790.48 1044.42 C-790.48 1043.76 -790.48 1043.1 -790.48 1042.42 C-791.14 1042.42 -791.8 1042.42 -792.48 1042.42 C-794.1 1040.59 -794.1 1040.59 -795.91 1038.17 C-796.51 1037.38 -797.11 1036.59 -797.72 1035.78 C-798.59 1034.61 -798.59 1034.61 -799.48 1033.42 C-800.05 1032.7 -800.61 1031.98 -801.2 1031.25 C-802.48 1029.42 -802.48 1029.42 -802.48 1027.42 C-803.14 1027.42 -803.8 1027.42 -804.48 1027.42 C-806.33 1025.25 -808.07 1023.06 -809.79 1020.79 C-810.74 1019.55 -811.7 1018.31 -812.65 1017.07 C-813.12 1016.46 -813.58 1015.85 -814.06 1015.22 C-815.44 1013.46 -816.88 1011.77 -818.33 1010.08 C-820.48 1007.42 -820.48 1007.42 -820.48 1005.42 C-821.14 1005.42 -821.8 1005.42 -822.48 1005.42 C-824.22 1003.37 -825.86 1001.31 -827.48 999.17 C-832.05 993.21 -836.78 987.44 -841.68 981.75 C-843.48 979.42 -843.48 979.42 -843.48 977.42 C-844.14 977.42 -844.8 977.42 -845.48 977.42 C-846.14 975.77 -846.8 974.12 -847.48 972.42 C-848.14 972.42 -848.8 972.42 -849.48 972.42 C-850.98 970.74 -850.98 970.74 -852.6 968.54 C-853.14 967.82 -853.68 967.1 -854.23 966.36 C-855.48 964.42 -855.48 964.42 -855.48 962.42 C-856.14 962.42 -856.8 962.42 -857.48 962.42 C-859.42 960.3 -859.42 960.3 -861.6 957.54 C-862.69 956.19 -862.69 956.19 -863.8 954.8 C-865.48 952.42 -865.48 952.42 -865.48 950.42 C-866.14 950.42 -866.8 950.42 -867.48 950.42 C-870.48 946.96 -870.48 946.96 -870.48 944.42 C-871.14 944.42 -871.8 944.42 -872.48 944.42 C-873.77 942.96 -873.77 942.96 -875.1 941.04 C-875.77 940.1 -875.77 940.1 -876.45 939.14 C-877.48 937.42 -877.48 937.42 -877.48 935.42 C-878.47 935.09 -879.46 934.76 -880.48 934.42 C-882.26 932.35 -883.91 930.29 -885.54 928.11 C-885.99 927.52 -886.43 926.94 -886.89 926.34 C-889.06 923.48 -891.04 920.71 -892.48 917.42 C-893.14 917.42 -893.8 917.42 -894.48 917.42 C-895.98 915.74 -895.98 915.74 -897.6 913.54 C-898.14 912.82 -898.68 912.1 -899.23 911.36 C-900.48 909.42 -900.48 909.42 -900.48 907.42 C-901.14 907.42 -901.8 907.42 -902.48 907.42 C-904.42 905.3 -904.42 905.3 -906.6 902.54 C-907.69 901.19 -907.69 901.19 -908.8 899.8 C-910.48 897.42 -910.48 897.42 -910.48 895.42 C-911.14 895.42 -911.8 895.42 -912.48 895.42 C-915.48 891.96 -915.48 891.96 -915.48 889.42 C-916.14 889.42 -916.8 889.42 -917.48 889.42 C-918.77 887.96 -918.77 887.96 -920.1 886.04 C-920.77 885.1 -920.77 885.1 -921.45 884.14 C-922.48 882.42 -922.48 882.42 -922.48 880.42 C-923.14 880.42 -923.8 880.42 -924.48 880.42 C-926.39 878.21 -928.2 875.99 -929.98 873.67 C-930.48 873.03 -930.97 872.4 -931.49 871.75 C-933.83 868.73 -935.84 865.89 -937.48 862.42 C-938.14 862.42 -938.8 862.42 -939.48 862.42 C-940.98 860.74 -940.98 860.74 -942.6 858.54 C-943.14 857.82 -943.68 857.1 -944.23 856.36 C-945.48 854.42 -945.48 854.42 -945.48 852.42 C-946.14 852.42 -946.8 852.42 -947.48 852.42 C-949.27 850.33 -950.95 848.24 -952.6 846.04 C-953.3 845.14 -953.3 845.14 -954.02 844.21 C-957.48 839.68 -957.48 839.68 -957.48 837.42 C-958.47 837.09 -959.46 836.76 -960.48 836.42 C-962.3 834.42 -962.3 834.42 -964.16 831.98 C-964.79 831.18 -965.41 830.37 -966.05 829.55 C-967.48 827.42 -967.48 827.42 -967.48 825.42 C-968.14 825.42 -968.8 825.42 -969.48 825.42 C-972.48 821.96 -972.48 821.96 -972.48 819.42 C-973.14 819.42 -973.8 819.42 -974.48 819.42 C-974.81 818.1 -975.14 816.78 -975.48 815.42 C-976.14 815.42 -976.8 815.42 -977.48 815.42 C-979 813.74 -980.44 812 -981.85 810.23 C-982.62 809.27 -983.39 808.3 -984.19 807.31 C-984.94 806.36 -985.7 805.4 -986.48 804.42 C-987.23 803.51 -987.99 802.61 -988.77 801.68 C-990.48 799.42 -990.48 799.42 -990.48 797.42 C-991.14 797.42 -991.8 797.42 -992.48 797.42 C-994.1 795.59 -994.1 795.59 -995.91 793.17 C-996.51 792.38 -997.11 791.59 -997.72 790.78 C-998.3 790 -998.88 789.22 -999.48 788.42 C-1000.05 787.7 -1000.61 786.98 -1001.2 786.25 C-1002.48 784.42 -1002.48 784.42 -1002.48 782.42 C-1003.14 782.42 -1003.8 782.42 -1004.48 782.42 C-1006.33 780.25 -1008.07 778.06 -1009.79 775.79 C-1010.74 774.55 -1011.7 773.31 -1012.65 772.07 C-1013.12 771.46 -1013.58 770.85 -1014.06 770.22 C-1015.44 768.46 -1016.88 766.77 -1018.33 765.08 C-1020.48 762.42 -1020.48 762.42 -1020.48 760.42 C-1021.14 760.42 -1021.8 760.42 -1022.48 760.42 C-1024.22 758.37 -1025.86 756.31 -1027.48 754.17 C-1032.05 748.21 -1036.78 742.44 -1041.68 736.75 C-1043.48 734.42 -1043.48 734.42 -1043.48 732.42 C-1044.14 732.42 -1044.8 732.42 -1045.48 732.42 C-1046.47 729.94 -1046.47 729.94 -1047.48 727.42 C-1048.14 727.42 -1048.8 727.42 -1049.48 727.42 C-1050.98 725.74 -1050.98 725.74 -1052.6 723.54 C-1053.14 722.82 -1053.68 722.1 -1054.23 721.36 C-1055.48 719.42 -1055.48 719.42 -1055.48 717.42 C-1056.14 717.42 -1056.8 717.42 -1057.48 717.42 C-1059.42 715.3 -1059.42 715.3 -1061.6 712.54 C-1062.33 711.64 -1063.05 710.73 -1063.8 709.8 C-1065.48 707.42 -1065.48 707.42 -1065.48 705.42 C-1066.14 705.42 -1066.8 705.42 -1067.48 705.42 C-1070.48 701.96 -1070.48 701.96 -1070.48 699.42 C-1071.14 699.42 -1071.8 699.42 -1072.48 699.42 C-1073.77 697.96 -1073.77 697.96 -1075.1 696.04 C-1075.77 695.1 -1075.77 695.1 -1076.45 694.14 C-1077.48 692.42 -1077.48 692.42 -1077.48 690.42 C-1078.47 690.09 -1079.46 689.76 -1080.48 689.42 C-1081.66 686.86 -1081.66 686.86 -1082.48 684.42 C-1083.14 684.42 -1083.8 684.42 -1084.48 684.42 C-1092.83 674.64 -1097.76 661.54 -1101.48 649.42 C-1101.71 648.75 -1101.95 648.09 -1102.19 647.41 C-1104.15 641.85 -1105.34 636.43 -1106.16 630.61 C-1106.35 629.28 -1106.35 629.28 -1106.54 627.93 C-1108.39 614.27 -1107.31 600.91 -1104.48 587.42 C-1104.15 587.09 -1103.82 586.76 -1103.48 586.42 C-1103.32 584.93 -1103.32 584.93 -1103.16 583.42 C-1102.65 579.5 -1101.25 576.33 -1099.56 572.78 C-1098.51 570.48 -1097.65 568.17 -1096.79 565.79 C-1091.5 552.6 -1083.04 541.76 -1073.48 531.42 C-1072.7 530.57 -1071.91 529.71 -1071.11 528.84 C-1067.7 525.26 -1065.2 523.07 -1060.48 521.42 C-1060.48 520.76 -1060.48 520.1 -1060.48 519.42 C-1056.98 516.84 -1053.19 514.68 -1049.48 512.42 C-1048.22 511.6 -1048.22 511.6 -1046.94 510.77 C-1041.59 507.34 -1036.35 505.15 -1030.28 503.29 C-1027.97 502.57 -1025.77 501.77 -1023.54 500.86 C-1012.31 496.66 -1001.31 495.85 -989.48 495.92 C-988.71 495.92 -987.95 495.92 -987.16 495.92 C-972.19 495.97 -957.83 497.39 -944.38 504.44 C-942.61 505.35 -940.78 506.13 -938.94 506.91 C-935.14 508.57 -931.62 510.51 -928.04 512.61 C-927.4 512.97 -926.77 513.34 -926.11 513.72 C-924.56 514.62 -923.02 515.52 -921.48 516.42 C-921.48 517.08 -921.48 517.74 -921.48 518.42 C-920.75 518.67 -920.03 518.91 -919.29 519.17 C-916.2 520.54 -913.97 522.14 -911.48 524.42 C-911.48 525.08 -911.48 525.74 -911.48 526.42 C-910.9 526.69 -910.32 526.95 -909.73 527.23 C-907.42 528.45 -905.46 529.72 -903.48 531.42 C-903.48 532.08 -903.48 532.74 -903.48 533.42 C-902.92 533.67 -902.36 533.91 -901.79 534.17 C-899.05 535.65 -896.8 537.35 -894.48 539.42 C-894.48 540.08 -894.48 540.74 -894.48 541.42 C-893.89 541.67 -893.31 541.93 -892.7 542.2 C-890.28 543.52 -888.74 544.98 -886.85 546.98 C-884.43 549.56 -884.43 549.56 -881.48 551.42 C-881.48 552.08 -881.48 552.74 -881.48 553.42 C-880.49 553.75 -879.5 554.08 -878.48 554.42 C-878.48 555.08 -878.48 555.74 -878.48 556.42 C-877.88 556.69 -877.29 556.96 -876.67 557.24 C-874.54 558.39 -873.06 559.54 -871.31 561.2 C-870.75 561.73 -870.18 562.26 -869.6 562.81 C-869.02 563.36 -868.45 563.91 -867.85 564.48 C-863.98 568.38 -863.98 568.38 -859.48 571.42 C-859.48 572.08 -859.48 572.74 -859.48 573.42 C-858.49 573.75 -857.5 574.08 -856.48 574.42 C-856.48 575.08 -856.48 575.74 -856.48 576.42 C-855.9 576.69 -855.32 576.95 -854.73 577.23 C-852.42 578.45 -850.46 579.72 -848.48 581.42 C-848.48 582.08 -848.48 582.74 -848.48 583.42 C-847.9 583.68 -847.31 583.94 -846.72 584.2 C-844.31 585.51 -842.63 586.96 -840.66 588.86 C-839.61 589.86 -839.61 589.86 -838.54 590.88 C-837.81 591.57 -837.09 592.27 -836.35 592.98 C-834.91 594.36 -833.47 595.74 -832.03 597.11 C-831.4 597.72 -830.76 598.33 -830.11 598.96 C-828.53 600.5 -828.53 600.5 -826.48 601.42 C-826.48 602.08 -826.48 602.74 -826.48 603.42 C-825.49 603.75 -824.5 604.08 -823.48 604.42 C-823.48 605.08 -823.48 605.74 -823.48 606.42 C-822.88 606.69 -822.29 606.96 -821.67 607.24 C-819.54 608.39 -818.06 609.54 -816.31 611.2 C-815.75 611.73 -815.18 612.26 -814.6 612.81 C-814.02 613.36 -813.45 613.91 -812.85 614.48 C-808.98 618.38 -808.98 618.38 -804.48 621.42 C-804.48 622.08 -804.48 622.74 -804.48 623.42 C-803.49 623.75 -802.5 624.08 -801.48 624.42 C-801.48 625.08 -801.48 625.74 -801.48 626.42 C-800.9 626.69 -800.32 626.95 -799.73 627.23 C-797.42 628.45 -795.46 629.72 -793.48 631.42 C-793.48 632.08 -793.48 632.74 -793.48 633.42 C-792.88 633.68 -792.29 633.95 -791.68 634.22 C-789.4 635.46 -788 636.72 -786.23 638.61 C-781.67 643.3 -776.93 647.78 -771.48 651.42 C-771.48 652.08 -771.48 652.74 -771.48 653.42 C-770.49 653.75 -769.5 654.08 -768.48 654.42 C-768.48 655.08 -768.48 655.74 -768.48 656.42 C-767.88 656.69 -767.29 656.96 -766.67 657.24 C-764.54 658.39 -763.06 659.54 -761.31 661.2 C-760.75 661.73 -760.18 662.26 -759.6 662.81 C-759.02 663.36 -758.45 663.91 -757.85 664.48 C-753.98 668.38 -753.98 668.38 -749.48 671.42 C-749.48 672.08 -749.48 672.74 -749.48 673.42 C-748.49 673.75 -747.5 674.08 -746.48 674.42 C-746.48 675.08 -746.48 675.74 -746.48 676.42 C-745.9 676.69 -745.32 676.95 -744.73 677.23 C-742.42 678.45 -740.46 679.72 -738.48 681.42 C-738.48 682.08 -738.48 682.74 -738.48 683.42 C-737.82 683.42 -737.16 683.42 -736.48 683.42 C-736.48 684.08 -736.48 684.74 -736.48 685.42 C-735.89 685.69 -735.3 685.95 -734.69 686.23 C-732.46 687.43 -730.92 688.68 -729.09 690.42 C-728.18 691.29 -728.18 691.29 -727.25 692.17 C-726.31 693.06 -726.31 693.06 -725.35 693.98 C-724.1 695.17 -722.85 696.36 -721.59 697.55 C-721.04 698.07 -720.49 698.6 -719.93 699.14 C-718.48 700.52 -718.48 700.52 -716.48 701.42 C-716.48 702.08 -716.48 702.74 -716.48 703.42 C-715.49 703.75 -714.5 704.08 -713.48 704.42 C-713.48 705.08 -713.48 705.74 -713.48 706.42 C-712.9 706.67 -712.33 706.93 -711.73 707.2 C-709.26 708.53 -707.43 710.09 -705.35 711.98 C-702.62 714.49 -702.62 714.49 -699.48 716.42 C-699.48 717.08 -699.48 717.74 -699.48 718.42 C-698.69 718.56 -697.91 718.71 -697.1 718.86 C-694.48 719.42 -694.48 719.42 -692.48 720.42 C-683.85 721.33 -677.62 720.92 -670.46 715.83 C-668.48 714.42 -668.48 714.42 -665.48 713.42 C-664.8 712.09 -664.14 710.75 -663.48 709.42 C-661.83 707.51 -660.14 705.63 -658.41 703.79 C-655.06 700.38 -655.06 700.38 -652.48 696.42 C-651.82 696.42 -651.16 696.42 -650.48 696.42 C-650.24 695.88 -650 695.34 -649.76 694.78 C-648.13 691.79 -646.13 689.31 -643.98 686.67 C-642.79 685.19 -642.79 685.19 -641.57 683.68 C-640.88 682.94 -640.19 682.19 -639.48 681.42 C-638.82 681.42 -638.16 681.42 -637.48 681.42 C-637.14 680.61 -637.14 680.61 -636.79 679.79 C-635.02 676.59 -632.94 674.13 -630.48 671.42 C-629.82 671.42 -629.16 671.42 -628.48 671.42 C-628.15 670.62 -628.15 670.62 -627.82 669.8 C-625.98 666.54 -623.48 663.99 -620.91 661.29 C-617.29 657.65 -617.29 657.65 -614.48 653.42 C-613.82 653.42 -613.16 653.42 -612.48 653.42 C-612.25 652.87 -612.03 652.33 -611.79 651.77 C-610.06 648.68 -607.83 646.37 -605.41 643.79 C-602.06 640.38 -602.06 640.38 -599.48 636.42 C-598.82 636.42 -598.16 636.42 -597.48 636.42 C-597.07 635.55 -597.07 635.55 -596.66 634.67 C-595.45 632.36 -594.17 630.4 -592.48 628.42 C-591.82 628.42 -591.16 628.42 -590.48 628.42 C-590.23 627.86 -589.98 627.3 -589.73 626.73 C-588.25 623.99 -586.54 621.74 -584.48 619.42 C-583.82 619.42 -583.16 619.42 -582.48 619.42 C-582.21 618.84 -581.94 618.26 -581.66 617.67 C-580.45 615.36 -579.17 613.4 -577.48 611.42 C-576.82 611.42 -576.16 611.42 -575.48 611.42 C-575.15 610.43 -574.82 609.44 -574.48 608.42 C-573.82 608.42 -573.16 608.42 -572.48 608.42 C-572.23 607.86 -571.98 607.31 -571.72 606.73 C-570.26 604.01 -568.49 601.76 -566.54 599.36 C-565.85 598.5 -565.16 597.64 -564.45 596.76 C-561.24 592.95 -561.24 592.95 -559.48 591.42 C-558.82 591.42 -558.16 591.42 -557.48 591.42 C-557.21 590.84 -556.94 590.26 -556.66 589.67 C-555.45 587.36 -554.17 585.4 -552.48 583.42 C-551.82 583.42 -551.16 583.42 -550.48 583.42 C-550.25 582.87 -550.03 582.33 -549.79 581.77 C-548.06 578.68 -545.83 576.37 -543.41 573.79 C-540.06 570.38 -540.06 570.38 -537.48 566.42 C-536.82 566.42 -536.16 566.42 -535.48 566.42 C-535.24 565.88 -535 565.34 -534.76 564.78 C-533.13 561.79 -531.13 559.31 -528.98 556.67 C-527.79 555.19 -527.79 555.19 -526.57 553.68 C-525.53 552.56 -525.53 552.56 -524.48 551.42 C-523.82 551.42 -523.16 551.42 -522.48 551.42 C-522.48 550.76 -522.48 550.1 -522.48 549.42 C-521.82 549.42 -521.16 549.42 -520.48 549.42 C-520.24 548.87 -520.01 548.31 -519.77 547.75 C-518.14 544.81 -516.08 542.63 -513.79 540.17 C-512.45 538.72 -512.45 538.72 -511.09 537.25 C-510.23 536.31 -509.37 535.38 -508.48 534.42 C-507.14 532.92 -505.8 531.42 -504.48 529.92 C-503.94 529.31 -503.4 528.7 -502.85 528.07 C-501.29 526.25 -501.29 526.25 -499.48 523.42 C-498.82 523.42 -498.16 523.42 -497.48 523.42 C-497.48 522.76 -497.48 522.1 -497.48 521.42 C-496.82 521.42 -496.16 521.42 -495.48 521.42 C-495.24 520.88 -495 520.34 -494.76 519.78 C-493.13 516.79 -491.13 514.31 -488.98 511.67 C-487.79 510.19 -487.79 510.19 -486.57 508.68 C-485.88 507.94 -485.19 507.19 -484.48 506.42 C-483.82 506.42 -483.16 506.42 -482.48 506.42 C-482.21 505.84 -481.94 505.26 -481.66 504.67 C-480.45 502.36 -479.17 500.4 -477.48 498.42 C-476.82 498.42 -476.16 498.42 -475.48 498.42 C-475.23 497.86 -474.98 497.3 -474.73 496.73 C-473.25 493.99 -471.54 491.74 -469.48 489.42 C-468.82 489.42 -468.16 489.42 -467.48 489.42 C-467.21 488.84 -466.94 488.26 -466.66 487.67 C-465.45 485.36 -464.17 483.4 -462.48 481.42 C-461.82 481.42 -461.16 481.42 -460.48 481.42 C-460.15 480.43 -459.82 479.44 -459.48 478.42 C-458.82 478.42 -458.16 478.42 -457.48 478.42 C-457.23 477.86 -456.98 477.31 -456.72 476.73 C-455.26 474.01 -453.49 471.76 -451.54 469.36 C-450.85 468.5 -450.16 467.64 -449.45 466.76 C-446.24 462.95 -446.24 462.95 -444.48 461.42 C-443.82 461.42 -443.16 461.42 -442.48 461.42 C-442.21 460.84 -441.94 460.26 -441.66 459.67 C-440.45 457.36 -439.17 455.4 -437.48 453.42 C-436.82 453.42 -436.16 453.42 -435.48 453.42 C-435.25 452.87 -435.03 452.33 -434.79 451.77 C-433.06 448.68 -430.83 446.37 -428.41 443.79 C-425.06 440.38 -425.06 440.38 -422.48 436.42 C-421.82 436.42 -421.16 436.42 -420.48 436.42 C-420.25 435.87 -420.03 435.33 -419.79 434.77 C-418.06 431.68 -415.83 429.37 -413.41 426.79 C-410.06 423.38 -410.06 423.38 -407.48 419.42 C-406.82 419.42 -406.16 419.42 -405.48 419.42 C-405.15 418.43 -404.82 417.44 -404.48 416.42 C-403.82 416.42 -403.16 416.42 -402.48 416.42 C-402.27 415.9 -402.05 415.38 -401.84 414.84 C-399.9 411.38 -397.33 408.58 -394.73 405.61 C-394.21 405.01 -393.7 404.42 -393.17 403.81 C-392.14 402.62 -391.1 401.43 -390.06 400.24 C-388.96 398.98 -387.88 397.7 -386.82 396.41 C-386.29 395.77 -385.76 395.13 -385.21 394.47 C-384.73 393.88 -384.26 393.3 -383.76 392.7 C-382.48 391.42 -382.48 391.42 -380.48 391.42 C-380.24 390.88 -380 390.34 -379.76 389.78 C-378.13 386.79 -376.13 384.31 -373.98 381.67 C-373.18 380.68 -372.39 379.7 -371.57 378.68 C-370.88 377.94 -370.19 377.19 -369.48 376.42 C-368.82 376.42 -368.16 376.42 -367.48 376.42 C-367.25 375.87 -367.03 375.33 -366.79 374.77 C-365.06 371.68 -362.83 369.37 -360.41 366.79 C-357.06 363.38 -357.06 363.38 -354.48 359.42 C-353.82 359.42 -353.16 359.42 -352.48 359.42 C-352.21 358.84 -351.94 358.26 -351.66 357.67 C-350.45 355.36 -349.17 353.4 -347.48 351.42 C-346.82 351.42 -346.16 351.42 -345.48 351.42 C-345.15 350.43 -344.82 349.44 -344.48 348.42 C-343.82 348.42 -343.16 348.42 -342.48 348.42 C-342.21 347.84 -341.94 347.26 -341.66 346.67 C-340.45 344.36 -339.17 342.4 -337.48 340.42 C-336.82 340.42 -336.16 340.42 -335.48 340.42 C-335.23 339.86 -334.98 339.3 -334.73 338.73 C-333.25 335.99 -331.54 333.74 -329.48 331.42 C-328.82 331.42 -328.16 331.42 -327.48 331.42 C-327.21 330.84 -326.94 330.26 -326.66 329.67 C-325.45 327.36 -324.17 325.4 -322.48 323.42 C-321.82 323.42 -321.16 323.42 -320.48 323.42 C-320.25 322.87 -320.03 322.33 -319.79 321.77 C-318.06 318.68 -315.83 316.37 -313.41 313.79 C-310.06 310.38 -310.06 310.38 -307.48 306.42 C-306.82 306.42 -306.16 306.42 -305.48 306.42 C-305.15 305.43 -304.82 304.44 -304.48 303.42 C-303.82 303.42 -303.16 303.42 -302.48 303.42 C-302.23 302.87 -301.98 302.31 -301.73 301.75 C-300.23 298.97 -298.44 296.64 -296.48 294.17 C-295.78 293.28 -295.07 292.38 -294.35 291.46 C-293.73 290.79 -293.11 290.11 -292.48 289.42 C-291.82 289.42 -291.16 289.42 -290.48 289.42 C-290.15 288.43 -289.82 287.44 -289.48 286.42 C-288.82 286.42 -288.16 286.42 -287.48 286.42 C-287.21 285.84 -286.94 285.26 -286.66 284.67 C-285.45 282.36 -284.17 280.4 -282.48 278.42 C-281.82 278.42 -281.16 278.42 -280.48 278.42 C-280.25 277.87 -280.03 277.33 -279.79 276.77 C-278.06 273.68 -275.83 271.37 -273.41 268.79 C-270.06 265.38 -270.06 265.38 -267.48 261.42 C-266.82 261.42 -266.16 261.42 -265.48 261.42 C-265.24 260.88 -265 260.34 -264.76 259.78 C-263.13 256.79 -261.13 254.31 -258.98 251.67 C-258.18 250.68 -257.39 249.7 -256.57 248.68 C-255.53 247.56 -255.53 247.56 -254.48 246.42 C-253.82 246.42 -253.16 246.42 -252.48 246.42 C-252.25 245.88 -252.02 245.35 -251.79 244.79 C-250.02 241.59 -247.94 239.13 -245.48 236.42 C-244.82 236.42 -244.16 236.42 -243.48 236.42 C-243.26 235.88 -243.05 235.35 -242.82 234.8 C-240.98 231.54 -238.48 228.99 -235.91 226.29 C-232.29 222.65 -232.29 222.65 -229.48 218.42 C-228.82 218.42 -228.16 218.42 -227.48 218.42 C-227.48 217.76 -227.48 217.1 -227.48 216.42 C-226.82 216.42 -226.16 216.42 -225.48 216.42 C-225.12 215.61 -225.12 215.61 -224.76 214.78 C-223.13 211.79 -221.13 209.31 -218.98 206.67 C-218.18 205.68 -217.39 204.7 -216.57 203.68 C-215.53 202.56 -215.53 202.56 -214.48 201.42 C-213.82 201.42 -213.16 201.42 -212.48 201.42 C-212.21 200.84 -211.94 200.26 -211.66 199.67 C-210.45 197.36 -209.17 195.4 -207.48 193.42 C-206.82 193.42 -206.16 193.42 -205.48 193.42 C-205.23 192.86 -204.98 192.3 -204.73 191.73 C-203.25 188.99 -201.54 186.74 -199.48 184.42 C-198.82 184.42 -198.16 184.42 -197.48 184.42 C-197.21 183.84 -196.94 183.26 -196.66 182.67 C-195.45 180.36 -194.17 178.4 -192.48 176.42 C-191.82 176.42 -191.16 176.42 -190.48 176.42 C-190.15 175.43 -189.82 174.44 -189.48 173.42 C-188.82 173.42 -188.16 173.42 -187.48 173.42 C-187.1 172.58 -187.1 172.58 -186.72 171.73 C-185.26 169.01 -183.49 166.76 -181.54 164.36 C-180.85 163.5 -180.16 162.64 -179.45 161.76 C-176.24 157.95 -176.24 157.95 -174.48 156.42 C-173.82 156.42 -173.16 156.42 -172.48 156.42 C-172.21 155.84 -171.94 155.26 -171.66 154.67 C-170.45 152.36 -169.17 150.4 -167.48 148.42 C-166.82 148.42 -166.16 148.42 -165.48 148.42 C-165.25 147.87 -165.03 147.33 -164.79 146.77 C-163.06 143.68 -160.83 141.37 -158.41 138.79 C-155.06 135.38 -155.06 135.38 -152.48 131.42 C-151.82 131.42 -151.16 131.42 -150.48 131.42 C-150.21 130.84 -149.94 130.26 -149.66 129.67 C-148.45 127.36 -147.17 125.4 -145.48 123.42 C-144.82 123.42 -144.16 123.42 -143.48 123.42 C-143.19 122.82 -142.9 122.22 -142.6 121.61 C-141.48 119.42 -141.48 119.42 -139.48 116.42 C-138.82 116.42 -138.16 116.42 -137.48 116.42 C-137.48 115.76 -137.48 115.1 -137.48 114.42 C-136.82 114.42 -136.16 114.42 -135.48 114.42 C-135.24 113.87 -135.01 113.31 -134.77 112.75 C-133.14 109.81 -131.08 107.63 -128.79 105.17 C-127.9 104.2 -127.01 103.24 -126.09 102.25 C-125.23 101.31 -124.37 100.38 -123.48 99.42 C-122.14 97.92 -120.8 96.42 -119.48 94.92 C-118.94 94.31 -118.4 93.7 -117.85 93.07 C-116.29 91.25 -116.29 91.25 -114.48 88.42 C-113.82 88.42 -113.16 88.42 -112.48 88.42 C-112.48 87.76 -112.48 87.1 -112.48 86.42 C-111.82 86.42 -111.16 86.42 -110.48 86.42 C-110.24 85.88 -110 85.34 -109.76 84.78 C-108.13 81.79 -106.13 79.31 -103.98 76.67 C-102.79 75.19 -102.79 75.19 -101.57 73.68 C-100.53 72.56 -100.53 72.56 -99.48 71.42 C-98.82 71.42 -98.16 71.42 -97.48 71.42 C-97.25 70.87 -97.03 70.33 -96.79 69.77 C-95.06 66.68 -92.83 64.37 -90.41 61.79 C-87.06 58.38 -87.06 58.38 -84.48 54.42 C-83.82 54.42 -83.16 54.42 -82.48 54.42 C-82.07 53.55 -82.07 53.55 -81.66 52.67 C-80.45 50.36 -79.17 48.4 -77.48 46.42 C-76.82 46.42 -76.16 46.42 -75.48 46.42 C-75.15 45.43 -74.82 44.44 -74.48 43.42 C-73.82 43.42 -73.16 43.42 -72.48 43.42 C-72.1 42.58 -72.1 42.58 -71.72 41.73 C-70.26 39.01 -68.49 36.76 -66.54 34.36 C-65.85 33.5 -65.16 32.64 -64.45 31.76 C-61.24 27.95 -61.24 27.95 -59.48 26.42 C-58.82 26.42 -58.16 26.42 -57.48 26.42 C-57.07 25.55 -57.07 25.55 -56.66 24.67 C-55.45 22.36 -54.17 20.4 -52.48 18.42 C-51.82 18.42 -51.16 18.42 -50.48 18.42 C-50.24 17.87 -50.01 17.32 -49.77 16.76 C-44.95 8.02 -36.93 0.95 -27.69 -2.68 C-18.22 -5.35 -8.78 -4.2 0 0 Z " fill="#000000" transform="translate(1184.4765625,95.58203125)"/>
</svg>
